<?xml version="1.0" encoding="UTF-8"?>
<svg width="364px" height="370px" viewBox="0 0 364 370" version="1.1" xmlns="http://www.w3.org/2000/svg" xmlns:xlink="http://www.w3.org/1999/xlink">
    <!-- Generator: Sketch 51.3 (57544) - http://www.bohemiancoding.com/sketch -->
    <title>Group</title>
    <desc>Created with Sketch.</desc>
    <defs></defs>
    <g id="Page-1" stroke="none" stroke-width="1" fill="none" fill-rule="evenodd">
        <g id="Group">
            <rect id="Rectangle" fill="#E04547" fill-rule="nonzero" x="0" y="0" width="364" height="370" rx="125"></rect>
            <g id="baseline-fingerprint-24px" transform="translate(35.000000, 38.000000)">
                <path d="M218.909887,54.2575 C217.927464,54.2575 216.94504,54.0125 216.08542,53.5225 C192.507263,41.395 172.121982,36.25 147.684204,36.25 C123.36923,36.25 100.282285,42.0075 79.2829885,53.5225 C76.3357189,55.115 72.6516319,54.0125 70.9323913,51.0725 C69.3359536,48.1325 70.4411797,44.335 73.3884493,42.7425 C96.2297889,30.37 121.281581,24 147.684204,24 C173.841222,24 196.682562,29.7575 221.734354,42.62 C224.804426,44.2125 225.909652,47.8875 224.313215,50.8275 C223.207988,53.0325 221.120339,54.2575 218.909887,54.2575 Z M43.1789357,118.57 C41.9509067,118.57 40.7228777,118.2025 39.6176516,117.4675 C36.7931848,115.5075 36.1791703,111.71 38.1440167,108.8925 C50.3015039,91.7425 65.7746694,78.2675 84.1951046,68.835 C122.755215,48.99 172.121982,48.8675 210.804895,68.7125 C229.225331,78.145 244.698496,91.4975 256.855983,108.525 C258.82083,111.22 258.206815,115.14 255.382348,117.1 C252.557882,119.06 248.750992,118.4475 246.786145,115.63 C235.733884,100.195 221.734354,88.0675 205.155962,79.615 C169.911529,61.6075 124.842865,61.6075 89.7212351,79.7375 C73.0200406,88.3125 59.0205099,100.5625 47.9682488,115.9975 C46.9858256,117.7125 45.1437821,118.57 43.1789357,118.57 Z M119.930749,266.4275 C118.334311,266.4275 116.737873,265.815 115.632647,264.59 C104.948795,253.9325 99.1770585,247.0725 90.9492641,232.25 C82.475864,217.1825 78.0549595,198.8075 78.0549595,179.085 C78.0549595,142.7025 109.246896,113.0575 147.561401,113.0575 C185.875907,113.0575 217.067843,142.7025 217.067843,179.085 C217.067843,182.515 214.36618,185.21 210.927698,185.21 C207.489217,185.21 204.787553,182.515 204.787553,179.085 C204.787553,149.44 179.121747,125.3075 147.561401,125.3075 C116.001056,125.3075 90.3352496,149.44 90.3352496,179.085 C90.3352496,196.725 94.2649425,213.0175 101.755919,226.2475 C109.615305,240.335 115.018633,246.3375 124.474456,255.8925 C126.807711,258.3425 126.807711,262.14 124.474456,264.59 C123.123624,265.815 121.527186,266.4275 119.930749,266.4275 Z M207.980429,243.765 C193.366883,243.765 180.472579,240.09 169.911529,232.8625 C151.613897,220.49 140.684439,200.4 140.684439,179.085 C140.684439,175.655 143.386103,172.96 146.824584,172.96 C150.263065,172.96 152.964729,175.655 152.964729,179.085 C152.964729,196.3575 161.806538,212.65 176.788492,222.695 C185.507498,228.575 195.700139,231.3925 207.980429,231.3925 C210.927698,231.3925 215.839814,231.025 220.75193,230.1675 C224.067609,229.555 227.260484,231.76 227.874499,235.19 C228.488513,238.4975 226.278061,241.6825 222.83958,242.295 C215.839814,243.6425 209.699669,243.765 207.980429,243.765 Z M183.297046,269 C182.805834,269 182.19182,268.8775 181.700608,268.755 C162.174947,263.365 149.403445,256.1375 136.017929,243.03 C118.825523,226.0025 109.369699,203.34 109.369699,179.085 C109.369699,159.24 126.3165,143.07 147.192993,143.07 C168.069486,143.07 185.016286,159.24 185.016286,179.085 C185.016286,192.1925 196.436956,202.85 210.55929,202.85 C224.681623,202.85 236.102293,192.1925 236.102293,179.085 C236.102293,132.9025 196.19135,95.4175 147.07019,95.4175 C112.194166,95.4175 80.2654118,114.7725 65.8974723,144.785 C61.1081592,154.7075 58.6521012,166.345 58.6521012,179.085 C58.6521012,188.64 59.5117215,203.7075 66.8798956,223.3075 C68.1079246,226.4925 66.5114869,230.045 63.3186114,231.1475 C60.125736,232.3725 56.5644519,230.6575 55.4592258,227.595 C49.4418836,211.5475 46.494614,195.6225 46.494614,179.085 C46.494614,164.385 49.3190807,151.0325 54.8452113,139.395 C71.1779971,105.2175 107.404853,83.045 147.07019,83.045 C202.94551,83.045 248.382583,126.0425 248.382583,178.9625 C248.382583,198.8075 231.435783,214.9775 210.55929,214.9775 C189.682796,214.9775 172.735996,198.8075 172.735996,178.9625 C172.735996,165.855 161.315326,155.1975 147.192993,155.1975 C133.070659,155.1975 121.649989,165.855 121.649989,178.9625 C121.649989,199.91 129.754981,219.51 144.614132,234.21 C156.280407,245.725 167.455471,252.095 184.77068,256.8725 C188.086359,257.73 189.928402,261.16 189.068782,264.345 C188.454767,267.1625 185.875907,269 183.297046,269 Z" id="Shape" fill-opacity="0.85" fill="#FFFFFF" fill-rule="nonzero"></path>
                <polygon id="Shape" points="0 0 295 0 295 295 0 295"></polygon>
            </g>
        </g>
    </g>
</svg>